# xmcd
#
# Track frame offsets:
#	150
#	25085
#	45662
#
# Disc length: 919 seconds
#
# Revision: 1
# Processed by: cddbd v1.5.1PL0 Copyright (c) Steve Scherf et al.
# Submitted via: dBpowerAMP V4.0
#
DISCID=1a039503
DTITLE=Bob Crewe1997 - in other generations
DYEAR=1900
DGENRE=Rock
TTITLE0=Can't take my Eyes off You
TTITLE1=Casa Lu Anna
TTITLE2=Rag Doll
EXTD=
EXTT0=
EXTT1=
EXTT2=
PLAYORDER=
